<svg width="2560" height="1599.9999999999998" xmlns="http://www.w3.org/2000/svg">
 <rect width="100%" height="100%" fill="white" />
 <g id="Layer_1">
  <title>Layer 1</title>
  <text transform="matrix(1 0 0 1 0 0)" fill="#000000" stroke="#000" stroke-width="0" x="960.00001" y="199.85708" id="svg_2" font-size="80" font-family="Noto Sans JP" text-anchor="start" xml:space="preserve">自瞄系统流程框图</text>
  <rect id="svg_11" height="450" width="400" y="350" x="795" stroke-width="5" stroke="#000" fill="#fff"/>
  <line id="svg_12" y2="900" x2="2520" y1="900" x1="43" stroke-width="5" stroke="#000" fill="none"/>
  <line id="svg_15" y2="900" x2="530" y1="1489.99994" x1="530" stroke-width="5" stroke="#000" fill="none"/>
  <line id="svg_16" y2="900" x2="1030" y1="1467.49994" x1="1030" stroke-width="5" stroke="#000" fill="none"/>
  <line id="svg_17" y2="900" x2="1530" y1="1482" x1="1530" stroke-width="5" stroke="#000" fill="none"/>
  <line id="svg_18" y2="900" x2="2030" y1="1482" x1="2030" stroke-width="5" stroke="#000" fill="none"/>
  <rect id="svg_24" height="200" width="400" y="615" x="230" stroke-width="5" stroke="#000" fill="#fff"/>
  <rect id="svg_25" height="200" width="400" y="615" x="1380" stroke-width="5" stroke="#000" fill="#fff"/>
  <rect id="svg_26" height="200" width="400" y="615" x="1930" stroke-width="5" stroke="#000" fill="#fff"/>
  <rect id="svg_28" height="200" width="400" y="985" x="80" stroke-width="5" stroke="#000" fill="#fff"/>
  <rect id="svg_29" height="450" width="400" y="985" x="579.99999" stroke-width="5" stroke="#000" fill="#fff"/>
  <rect id="svg_30" height="200" width="400" y="985" x="1080.00003" stroke-width="5" stroke="#000" fill="#fff"/>
  <rect id="svg_31" height="450" width="400" y="985" x="1580" stroke-width="5" stroke="#000" fill="#fff"/>
  <rect id="svg_32" height="450" width="400" y="985" x="2080" stroke-width="5" stroke="#000" fill="#fff"/>
  <path id="svg_33" d="m232.5,352.5l400,0l0,200l-400,0l0,-200z" opacity="undefined" stroke-width="5" stroke="#000" fill="#fff"/>
  <rect id="svg_35" height="200" width="400" y="350" x="1380" stroke-width="5" stroke="#000" fill="#fff"/>
  <rect id="svg_36" height="200" width="400" y="350" x="1930" stroke-width="5" stroke="#000" fill="#fff"/>
  <rect id="svg_37" height="200" width="400" y="1250" x="80" stroke-width="5" stroke="#000" fill="#fff"/>
  <rect id="svg_38" height="200" width="400" y="1250" x="1080.00003" stroke-width="5" stroke="#000" fill="#fff"/>
  <text transform="matrix(0.767313 0 0 0.926425 52.9363 79.5565)" stroke="#000" xml:space="preserve" text-anchor="start" font-family="Noto Sans JP" font-size="41" id="svg_39" y="424.44728" x="244.77437" stroke-width="0" fill="#000000">相机输入（工业相机图像流）</text>
  <text style="cursor: move;" transform="matrix(0.767313 0 0 0.926425 52.9363 79.5565)" stroke="#000" xml:space="preserve" text-anchor="start" font-family="Noto Sans JP" font-size="41" id="svg_43" y="702.39746" x="238.25813" stroke-width="0" fill="#000000">IMU 输入（云台 IMU 数据）</text>
  <text transform="matrix(0.889461 0 0 1.20466 -86.0389 -67.5408)" stroke="#000" xml:space="preserve" text-anchor="start" font-family="Noto Sans JP" font-size="41" id="svg_44" y="505.40364" x="1015.15975" stroke-width="0" fill="#000000">时间同步与图像预处理</text>
  <text style="cursor: move;" transform="matrix(0.767313 0 0 0.926425 52.9363 79.5565)" stroke="#000" xml:space="preserve" text-anchor="start" font-family="Noto Sans JP" font-size="41" id="svg_45" y="416.35165" x="1730.47837" stroke-width="0" fill="#000000">目标检测（单帧）</text>
  <text style="cursor: move;" transform="matrix(0.767313 0 0 0.926425 52.9363 79.5565)" stroke="#000" xml:space="preserve" text-anchor="start" font-family="Noto Sans JP" font-size="41" id="svg_46" y="705.096" x="1743.51086" stroke-width="0" fill="#000000">候选筛选</text>
  <text style="cursor: move;" transform="matrix(0.767313 0 0 0.926425 52.9363 79.5565)" stroke="#000" xml:space="preserve" text-anchor="start" font-family="Noto Sans JP" font-size="41" id="svg_47" y="413.6531" x="2453.78148" stroke-width="0" fill="#000000">目标跟踪（时域关联）</text>
  <text style="cursor: move;" transform="matrix(0.767313 0 0 0.926425 52.9363 79.5565)" stroke="#000" xml:space="preserve" text-anchor="start" font-family="Noto Sans JP" font-size="41" id="svg_48" y="699.69889" x="2470.07209" stroke-width="0" fill="#000000">相机坐标系下方向估计</text>
  <text transform="matrix(0.767313 0 0 0.926425 52.9363 79.5565)" stroke="#000" xml:space="preserve" text-anchor="start" font-family="Noto Sans JP" font-size="39" id="svg_49" y="1104.48072" x="42.77076" stroke-width="0" fill="#000000">距离/尺度估计（单目或融合）</text>
  <text transform="matrix(0.767313 0 0 0.926425 52.9363 79.5565)" stroke="#000" xml:space="preserve" text-anchor="start" font-family="Noto Sans JP" font-size="36" id="svg_50" y="1371.63664" x="49.287" stroke-width="0" fill="#000000">平台/云台姿态补偿（IMU融合）</text>
  <text transform="matrix(0.767313 0 0 0.926425 52.9363 79.5565)" stroke="#000" xml:space="preserve" text-anchor="start" font-family="Noto Sans JP" font-size="41" id="svg_51" y="1180.03993" x="726.97651" stroke-width="0" fill="#000000">目标运动预测与瞄准补偿</text>
  <text transform="matrix(0.767313 0 0 0.926425 52.9363 79.5565)" stroke="#000" xml:space="preserve" text-anchor="start" font-family="Noto Sans JP" font-size="41" id="svg_52" y="1104.48072" x="1375.3429" stroke-width="0" fill="#000000">期望瞄准向量（相机系）</text>
  <text transform="matrix(0.767313 0 0 0.926425 52.9363 79.5565)" stroke="#000" xml:space="preserve" text-anchor="start" font-family="Noto Sans JP" font-size="41" id="svg_53" y="1441.79882" x="1329.72919" stroke-width="0" fill="#000000">（相机系 -&gt; 云台 yaw/pitch）</text>
  <text transform="matrix(0.767313 0 0 0.926425 52.9363 79.5565)" stroke="#000" xml:space="preserve" text-anchor="start" font-family="Noto Sans JP" font-size="41" id="svg_54" y="1212.42247" x="2046.51629" stroke-width="0" fill="#000000">输出：云台目标角度</text>
  <text transform="matrix(0.767313 0 0 0.926425 52.9363 79.5565)" stroke="#000" xml:space="preserve" text-anchor="start" font-family="Noto Sans JP" font-size="41" id="svg_55" y="1212.42247" x="2714.4313" stroke-width="0" fill="#000000">监控与日志（性能、</text>
  <text transform="matrix(0.890286 0 0 1 97.5599 0)" stroke="#000" xml:space="preserve" text-anchor="start" font-family="Noto Sans JP" font-size="41" id="svg_57" y="649.99997" x="769.3485" stroke-width="0" fill="#000000">（去畸变、归一化、ROI）</text>
  <text transform="matrix(0.767313 0 0 0.926425 52.9363 79.5565)" stroke="#000" xml:space="preserve" text-anchor="start" font-family="Noto Sans JP" font-size="41" id="svg_58" y="1279.88611" x="762.81585" stroke-width="0" fill="#000000">（考虑延时与速度）</text>
  <text transform="matrix(0.767313 0 0 0.926425 52.9363 79.5565)" stroke="#000" xml:space="preserve" text-anchor="start" font-family="Noto Sans JP" font-size="41" id="svg_59" y="1360.84246" x="1518.7003" stroke-width="0" fill="#000000">角度转换</text>
  <text transform="matrix(0.767313 0 0 0.926425 52.9363 79.5565)" stroke="#000" xml:space="preserve" text-anchor="start" font-family="Noto Sans JP" font-size="41" id="svg_60" y="1301.47446" x="2017.19318" stroke-width="0" fill="#000000">（yaw, pitch） + 置信度</text>
  <text transform="matrix(0.767313 0 0 0.926425 52.9363 79.5565)" stroke="#000" xml:space="preserve" text-anchor="start" font-family="Noto Sans JP" font-size="41" id="svg_61" y="1290.68028" x="2659.04322" stroke-width="0" fill="#000000">延时、置信度、异常退避）</text>
  <path transform="rotate(45 714.955 467.304)" stroke="#000" id="svg_62" d="m708.00079,506.71323l24.2549,-24.3409l-46.89567,0l-46.89556,0l0,-15.06817l0,-15.06818l46.35758,0c25.49663,0 46.35754,-0.76373 46.35754,-1.69718c0,-0.93343 -10.15013,-11.88684 -22.55582,-24.34089l-22.55589,-22.64374l20.84853,0l20.84846,0l31.84031,31.90552l31.8403,31.90551l-31.90138,31.84446l-31.90137,31.84446l-21.94843,0l-21.94848,0l24.25497,-24.34091l0.00001,0.00001z" stroke-width="5" fill="#fff"/>
  <path transform="rotate(-45 714.955 712.304)" stroke="#000" id="svg_64" d="m708.00079,751.71323l24.2549,-24.34089l-46.89566,0l-46.89557,0l0,-15.06817l0,-15.06818l46.35758,0c25.49663,0 46.35754,-0.76373 46.35754,-1.69718c0,-0.93343 -10.15013,-11.88684 -22.55582,-24.34089l-22.55588,-22.64374l20.84853,0l20.84846,0l31.84031,31.90552l31.8403,31.90551l-31.90138,31.84446l-31.90137,31.84447l-21.94843,0l-21.94848,0l24.25496,-24.34091l0.00001,0z" stroke-width="5" fill="#fff"/>
  <path transform="rotate(45 1289.95 712.304)" stroke="#000" id="svg_65" d="m1283.00079,751.71323l24.2549,-24.34089l-46.89566,0l-46.89557,0l0,-15.06817l0,-15.06818l46.35758,0c25.49663,0 46.35754,-0.76373 46.35754,-1.69718c0,-0.93343 -10.15013,-11.88684 -22.55582,-24.34089l-22.55588,-22.64374l20.84853,0l20.84846,0l31.84031,31.90552l31.8403,31.90551l-31.90138,31.84446l-31.90137,31.84447l-21.94843,0l-21.94848,0l24.25496,-24.34091l0.00001,0z" stroke-width="5" fill="#fff"/>
  <path transform="rotate(-45 1289.96 462.304)" stroke="#000" id="svg_66" d="m1283.00079,501.71323l24.2549,-24.34089l-46.89566,0l-46.89557,0l0,-15.06817l0,-15.06818l46.35758,0c25.49663,0 46.35754,-0.76373 46.35754,-1.69718c0,-0.93343 -10.15013,-11.88684 -22.55582,-24.34089l-22.55588,-22.64374l20.84853,0l20.84846,0l31.84031,31.90552l31.8403,31.90551l-31.90138,31.84446l-31.90137,31.84447l-21.94843,0l-21.94848,0l24.25496,-24.34091l0.00001,0z" stroke-width="5" fill="#fff"/>
  <path stroke="#000" id="svg_67" d="m1853.00079,501.71323l24.2549,-24.34089l-46.89566,0l-46.89557,0l0,-15.06817l0,-15.06818l46.35758,0c25.49663,0 46.35754,-0.76373 46.35754,-1.69718c0,-0.93343 -10.15013,-11.88684 -22.55582,-24.34089l-22.55588,-22.64374l20.84853,0l20.84846,0l31.84031,31.90552l31.8403,31.90551l-31.90138,31.84446l-31.90137,31.84447l-21.94843,0l-21.94848,0l24.25496,-24.34091l0.00001,0z" stroke-width="5" fill="#fff"/>
  <path stroke="#000" id="svg_68" d="m1853.00079,751.71323l24.2549,-24.34089l-46.89566,0l-46.89557,0l0,-15.06817l0,-15.06818l46.35758,0c25.49663,0 46.35754,-0.76373 46.35754,-1.69718c0,-0.93343 -10.15013,-11.88684 -22.55582,-24.34089l-22.55588,-22.64374l20.84853,0l20.84846,0l31.84031,31.90552l31.8403,31.90551l-31.90138,31.84446l-31.90137,31.84447l-21.94843,0l-21.94848,0l24.25496,-24.34091l0.00001,0z" stroke-width="5" fill="#fff"/>
  <path transform="rotate(45 554.955 1092.3)" stroke="#000" id="svg_69" d="m548.00079,1131.71323l24.2549,-24.34089l-46.89566,0l-46.89557,0l0,-15.06817l0,-15.06818l46.35758,0c25.49663,0 46.35754,-0.76373 46.35754,-1.69718c0,-0.93343 -10.15013,-11.88684 -22.55582,-24.34089l-22.55588,-22.64374l20.84853,0l20.84846,0l31.84031,31.90552l31.8403,31.90551l-31.90138,31.84446l-31.90137,31.84447l-21.94843,0l-21.94848,0l24.25496,-24.34091l0.00001,0z" stroke-width="5" fill="#fff"/>
  <path stroke="#000" id="svg_70" d="m2408.00079,501.71323l24.2549,-24.34089l-46.89566,0l-46.89557,0l0,-15.06817l0,-15.06818l46.35758,0c25.49663,0 46.35754,-0.76373 46.35754,-1.69718c0,-0.93343 -10.15013,-11.88684 -22.55582,-24.34089l-22.55588,-22.64374l20.84853,0l20.84846,0l31.84031,31.90552l31.8403,31.90551l-31.90138,31.84446l-31.90137,31.84447l-21.94843,0l-21.94848,0l24.25496,-24.34091l0.00001,0z" stroke-width="5" fill="#fff"/>
  <path stroke="#000" id="svg_71" d="m2408.00079,751.71323l24.2549,-24.34089l-46.89566,0l-46.89557,0l0,-15.06817l0,-15.06818l46.35758,0c25.49663,0 46.35754,-0.76373 46.35754,-1.69718c0,-0.93343 -10.15013,-11.88684 -22.55582,-24.34089l-22.55588,-22.64374l20.84853,0l20.84846,0l31.84031,31.90552l31.8403,31.90551l-31.90138,31.84446l-31.90137,31.84447l-21.94843,0l-21.94848,0l24.25496,-24.34091l0.00001,0z" stroke-width="5" fill="#fff"/>
  <path transform="rotate(-45 554.955 1342.3)" stroke="#000" id="svg_72" d="m548.00079,1381.71323l24.2549,-24.34089l-46.89566,0l-46.89557,0l0,-15.06817l0,-15.06818l46.35758,0c25.49663,0 46.35754,-0.76373 46.35754,-1.69718c0,-0.93343 -10.15013,-11.88684 -22.55582,-24.34089l-22.55588,-22.64374l20.84853,0l20.84846,0l31.84031,31.90552l31.8403,31.90551l-31.90138,31.84446l-31.90137,31.84447l-21.94843,0l-21.94848,0l24.25496,-24.34091l0.00001,0z" stroke-width="5" fill="#fff"/>
  <path transform="rotate(45 1032.45 1342.3)" stroke="#000" id="svg_73" d="m1025.50079,1381.71323l24.2549,-24.34089l-46.89566,0l-46.89557,0l0,-15.06817l0,-15.06818l46.35758,0c25.49663,0 46.35754,-0.76373 46.35754,-1.69718c0,-0.93343 -10.15013,-11.88684 -22.55582,-24.34089l-22.55588,-22.64374l20.84853,0l20.84846,0l31.84031,31.90552l31.8403,31.90551l-31.90138,31.84446l-31.90137,31.84447l-21.94843,0l-21.94848,0l24.25496,-24.34091l0.00001,0z" stroke-width="5" fill="#fff"/>
  <path transform="rotate(-45 1032.46 1092.3)" stroke="#000" id="svg_74" d="m1025.50079,1131.71323l24.2549,-24.34089l-46.89566,0l-46.89557,0l0,-15.06817l0,-15.06818l46.35758,0c25.49663,0 46.35754,-0.76373 46.35754,-1.69718c0,-0.93343 -10.15013,-11.88684 -22.55582,-24.34089l-22.55588,-22.64374l20.84853,0l20.84846,0l31.84031,31.90552l31.8403,31.90551l-31.90138,31.84446l-31.90137,31.84447l-21.94843,0l-21.94848,0l24.25496,-24.34091l0.00001,0z" stroke-width="5" fill="#fff"/>
  <path transform="rotate(-45 1537.46 1342.3)" stroke="#000" id="svg_75" d="m1530.50079,1381.71323l24.2549,-24.34089l-46.89566,0l-46.89557,0l0,-15.06817l0,-15.06818l46.35758,0c25.49663,0 46.35754,-0.76373 46.35754,-1.69718c0,-0.93343 -10.15013,-11.88684 -22.55582,-24.34089l-22.55588,-22.64374l20.84853,0l20.84846,0l31.84031,31.90552l31.8403,31.90551l-31.90138,31.84446l-31.90137,31.84447l-21.94843,0l-21.94848,0l24.25496,-24.34091l0.00001,0z" stroke-width="5" fill="#fff"/>
  <path stroke="#000" id="svg_76" d="m2020.50079,1264.21323l24.2549,-24.34089l-46.89566,0l-46.89557,0l0,-15.06817l0,-15.06818l46.35758,0c25.49663,0 46.35754,-0.76373 46.35754,-1.69718c0,-0.93343 -10.15013,-11.88684 -22.55582,-24.34089l-22.55588,-22.64374l20.84853,0l20.84846,0l31.84031,31.90552l31.8403,31.90551l-31.90138,31.84446l-31.90137,31.84447l-21.94843,0l-21.94848,0l24.25496,-24.34091l0.00001,0z" stroke-width="5" fill="#fff"/>
  <path transform="rotate(90 2421.06 860.975)" stroke="#000" id="svg_79" d="m2337.31015,945.97517l0,-95.62498l0,0c0,-41.07617 32.80921,-74.37499 73.28142,-74.37499l0,0l0,0c19.43544,0 38.07485,7.83592 51.8178,21.78393c13.74294,13.94801 21.46362,32.86559 21.46362,52.59106l0,10.625l20.93753,0l-41.87507,42.50001l-41.87511,-42.50001l20.93755,0l0,-10.625c0,-17.60407 -14.0611,-31.87499 -31.40631,-31.87499l0,0l0,0c-17.34524,0 -31.40632,14.27092 -31.40632,31.87499l0,95.62498l-41.8751,0z" stroke-width="5" fill="#fff"/>
  <path transform="rotate(180 848.892 955.459)" stroke="#000" id="svg_80" d="m733.89164,993.58401l157.55002,0l0,-76.25l-24.15,0l48.3,-38.12499l48.30002,38.12499l-24.15001,0l0,114.37501l-205.85003,0l-0.00001,-38.12501z" stroke-width="5" fill="#fff"/>
  <path stroke="#000" id="svg_81" d="m965,878.6666l1407.5,0l0,38.83334l-1407.5,0l0,-38.83334z" opacity="undefined" stroke-width="5" fill="#fff"/>
 </g>

</svg>